<?xml version="1.0" standalone="no"?>
<!DOCTYPE svg PUBLIC "-//W3C//DTD SVG 20010904//EN"
 "http://www.w3.org/TR/2001/REC-SVG-20010904/DTD/svg10.dtd">
<svg version="1.0" xmlns="http://www.w3.org/2000/svg"
 width="300.000000pt" height="300.000000pt" viewBox="0 0 300.000000 300.000000"
 preserveAspectRatio="xMidYMid meet">
<metadata>
Created by potrace 1.14, written by Peter Selinger 2001-2017
</metadata>
<g transform="translate(0.000000,300.000000) scale(0.100000,-0.100000)"
fill="#000000" stroke="none">
<path d="M0 1986 l0 -103 749 0 c714 0 750 -1 787 -19 51 -26 76 -63 82 -123
6 -63 -23 -128 -70 -156 -31 -18 -54 -20 -308 -22 -305 -2 -334 -5 -370 -31
-56 -41 -61 -69 -62 -334 0 -134 1 -256 1 -271 l1 -28 103 3 102 3 0 217 c0
131 4 221 10 227 10 10 77 13 241 12 l90 -1 60 -102 c32 -55 68 -117 79 -137
11 -20 45 -77 74 -128 l54 -91 119 0 119 0 -14 22 c-8 11 -36 59 -64 106 -139
236 -193 332 -193 340 0 5 22 19 50 31 169 73 249 336 153 509 -45 82 -98 125
-195 161 -49 18 -93 19 -825 19 l-773 0 0 -104z"/>
<path d="M2300 2066 c-100 -31 -131 -48 -194 -110 -98 -95 -147 -237 -149
-431 -2 -173 16 -273 67 -377 61 -123 191 -215 336 -236 25 -4 128 -7 230 -7
158 0 192 3 235 19 70 27 105 52 143 101 l32 42 0 204 0 205 -28 30 c-45 49
-82 56 -313 58 -115 0 -210 -1 -210 -4 -1 -3 -2 -49 -3 -102 -1 -92 0 -98 19
-99 11 0 96 0 190 0 110 0 174 -4 182 -11 10 -8 13 -32 12 -75 -2 -53 -7 -72
-30 -103 -16 -22 -42 -43 -61 -49 -18 -6 -102 -10 -191 -9 -132 1 -167 4 -218
22 -129 45 -183 148 -183 351 0 121 5 163 31 227 31 80 91 137 158 152 17 3
41 9 55 12 14 3 148 6 298 6 l272 1 0 104 0 103 -302 -1 c-285 -1 -307 -2
-378 -23z"/>
<path d="M310 1310 l0 -411 103 3 102 3 2 408 2 407 -104 0 -105 0 0 -410z"/>
</g>
</svg>
