<?xml version="1.0" standalone="no"?>
<!DOCTYPE svg PUBLIC "-//W3C//DTD SVG 20010904//EN"
 "http://www.w3.org/TR/2001/REC-SVG-20010904/DTD/svg10.dtd">
<svg version="1.0" xmlns="http://www.w3.org/2000/svg"
 width="300.000000pt" height="300.000000pt" viewBox="0 0 300.000000 300.000000"
 preserveAspectRatio="xMidYMid meet">
<metadata>
Created by potrace 1.14, written by Peter Selinger 2001-2017
</metadata>
<g transform="translate(0.000000,300.000000) scale(0.100000,-0.100000)"
fill="#000000" stroke="none">
<path d="M1498 2975 c-1 -2 -28 -4 -58 -6 -30 -1 -77 -9 -105 -16 -27 -7 -64
-16 -81 -19 -18 -2 -56 -14 -85 -25 -30 -12 -62 -23 -71 -26 -10 -3 -18 -9
-18 -14 0 -5 -7 -9 -15 -9 -25 0 -165 -102 -234 -171 -69 -68 -148 -178 -188
-260 -19 -41 -32 -53 -82 -78 -74 -38 -205 -137 -257 -193 -56 -63 -84 -97
-84 -104 0 -3 -11 -20 -24 -37 -54 -73 -93 -162 -126 -287 -49 -183 -42 -367
21 -559 37 -112 78 -187 159 -295 60 -79 187 -184 305 -252 59 -34 70 -43 79
-70 3 -11 22 -44 41 -74 101 -159 226 -273 390 -358 62 -33 175 -72 206 -72
10 0 21 -5 24 -10 4 -6 9 -9 13 -7 4 3 44 -1 89 -8 114 -17 212 -11 338 22 33
8 65 16 72 17 7 1 16 5 19 9 4 4 14 7 21 7 8 0 40 12 71 27 184 86 366 261
454 437 16 32 37 57 49 61 12 4 37 18 58 31 20 13 45 30 55 37 134 86 255 220
335 371 30 57 84 231 96 311 8 49 7 229 0 270 -9 46 -35 144 -53 200 -63 197
-249 409 -457 523 -39 22 -54 39 -79 87 -28 54 -43 79 -103 165 -25 36 -131
141 -178 175 -22 17 -42 32 -45 35 -3 3 -16 11 -30 18 -14 7 -41 22 -60 33
-72 44 -239 94 -350 104 -36 4 -75 8 -87 10 -12 2 -23 2 -25 0z m167 -375
c103 -33 199 -85 239 -129 19 -21 19 -21 -5 -22 -13 0 -33 -3 -44 -5 -11 -3
-36 -7 -55 -11 -50 -8 -198 -61 -249 -90 l-44 -25 -71 36 c-58 29 -156 64
-188 67 -4 0 -22 5 -40 10 -18 5 -48 12 -67 15 -19 2 -36 6 -38 8 -6 6 69 62
127 93 55 30 134 59 180 65 54 8 218 0 255 -12z m-477 -526 l43 -16 -19 -22
c-11 -11 -37 -52 -57 -91 -34 -64 -41 -72 -108 -108 -40 -21 -79 -45 -88 -53
-14 -13 -18 -10 -33 30 -17 46 -31 222 -20 263 5 17 15 23 48 25 63 5 186 -10
234 -28z m925 16 c9 -8 11 -150 2 -190 -3 -14 -8 -41 -11 -60 -7 -40 -21 -70
-32 -70 -4 0 -19 10 -33 23 -15 12 -53 35 -85 50 -54 26 -63 35 -98 100 -21
40 -48 82 -59 94 -19 22 -19 23 -1 29 10 3 30 10 44 16 13 5 54 12 90 15 36 3
66 6 67 7 6 5 110 -7 116 -14z m-1538 -312 c15 -62 34 -129 43 -148 8 -19 16
-37 17 -40 0 -3 11 -24 23 -47 24 -46 27 -57 13 -49 -5 3 -8 0 -8 -7 1 -6 -13
-43 -32 -82 -41 -85 -88 -240 -90 -294 -1 -35 -24 -12 -69 73 -60 110 -77 175
-77 296 0 133 12 186 70 299 21 42 71 111 80 111 2 0 15 -51 30 -112z m1964
11 c18 -34 42 -87 53 -118 27 -75 33 -232 13 -321 -16 -67 -75 -197 -110 -237
l-19 -23 -18 76 c-10 42 -15 81 -11 86 3 6 1 8 -4 5 -6 -4 -13 9 -17 31 -3 20
-17 59 -31 86 -13 27 -23 52 -20 56 2 4 -4 15 -15 25 -11 10 -20 23 -20 28 0
5 16 44 37 86 30 64 44 102 67 186 1 6 8 36 16 68 12 52 15 56 30 42 8 -8 31
-42 49 -76z m-931 -204 c6 -5 4 -186 -2 -192 -5 -5 -90 -8 -169 -5 l-38 2 2
99 2 100 31 3 c37 4 169 -1 174 -7z m-609 -409 c11 -6 40 -22 66 -36 36 -19
52 -35 68 -70 11 -25 37 -71 58 -102 l37 -57 -36 -12 c-60 -21 -63 -21 -167
-25 -119 -4 -142 0 -123 24 11 13 11 14 0 8 -20 -12 -10 176 13 259 13 49 25
58 47 39 10 -10 27 -22 37 -28z m1099 -17 c14 -48 25 -230 16 -266 -6 -22 -9
-22 -118 -19 -114 3 -140 7 -189 27 -24 10 -26 14 -13 28 19 22 64 99 83 143
11 27 27 42 62 58 71 33 97 48 111 65 20 24 33 13 48 -36z m-534 -538 c91 -44
210 -81 304 -95 12 -2 25 -6 28 -9 11 -11 -115 -84 -204 -118 -64 -24 -228
-31 -318 -13 -75 16 -210 79 -247 115 -15 15 -7 19 98 43 66 16 146 43 192 66
43 21 80 39 82 39 3 1 32 -12 65 -28z"/>
</g>
</svg>
